<svg width="835" height="67" viewBox="0 0 835 67" fill="none" xmlns="http://www.w3.org/2000/svg">
<path d="M23.0378 7.79126H19.6267L13.8358 11.5763V14.9307L19.3887 11.3043H19.5247V31H23.0378V7.79126ZM36.9766 31.3173C41.6455 31.3173 44.9773 28.0196 44.9659 23.498C44.9773 19.0103 41.8495 15.7466 37.6225 15.7466C35.9 15.7466 34.3022 16.4039 33.3956 17.2878H33.2596L33.9962 10.7943H43.844V7.79126H31.0838L29.7805 19.4863L32.9876 19.9622C33.8602 19.1803 35.4241 18.6477 36.8293 18.6477C39.583 18.6704 41.5775 20.7329 41.5775 23.5659C41.5775 26.3537 39.6397 28.3709 36.9766 28.3709C34.7328 28.3709 32.9536 26.943 32.7723 24.9485H29.3726C29.5085 28.6429 32.7156 31.3173 36.9766 31.3173ZM57.1851 31.3853C62.5453 31.3853 65.6844 27.011 65.6844 19.407C65.6844 11.8596 62.5 7.47395 57.1851 7.47395C51.8589 7.47395 48.6858 11.8483 48.6745 19.407C48.6745 26.9997 51.8135 31.374 57.1851 31.3853ZM57.1851 28.3596C54.046 28.3596 52.1535 25.2091 52.1535 19.407C52.1648 13.6274 54.0573 10.443 57.1851 10.443C60.3015 10.443 62.2053 13.6274 62.2053 19.407C62.2053 25.2091 60.3128 28.3596 57.1851 28.3596ZM70.0219 31H73.5236V23.7813L76.266 20.6309L83.7681 31H87.9837L78.5891 18.2397L87.9497 7.79126H83.5414L73.8069 18.8743H73.5236V7.79126H70.0219V31ZM95.0211 27.1017H98.0695V20.9595H104.212V17.9111H98.0695V11.7803H95.0211V17.9111H88.8903V20.9595H95.0211V27.1017Z" fill="#0C1523"/>
<path opacity="0.7" d="M1.06534 62H2.52841V57.7718H6.64773V56.517H2.52841V53.5625H7.0786V52.303H1.06534V62ZM8.67306 62H10.0888V57.5587C10.0888 56.607 10.8227 55.9205 11.8265 55.9205C12.12 55.9205 12.4515 55.9725 12.5651 56.0057V54.6515C12.4231 54.6326 12.1437 54.6184 11.9638 54.6184C11.1115 54.6184 10.3823 55.1013 10.1172 55.8826H10.0414V54.7273H8.67306V62ZM16.6643 62.1468C18.2505 62.1468 19.3726 61.3655 19.6946 60.1818L18.3546 59.9403C18.099 60.6269 17.4834 60.9773 16.6785 60.9773C15.4664 60.9773 14.652 60.1913 14.6141 58.7898H19.7846V58.2879C19.7846 55.66 18.2126 54.6326 16.5649 54.6326C14.5384 54.6326 13.2031 56.1761 13.2031 58.411C13.2031 60.6695 14.5194 62.1468 16.6643 62.1468ZM14.6188 57.7292C14.6757 56.697 15.4238 55.8021 16.5743 55.8021C17.6728 55.8021 18.3925 56.6165 18.3973 57.7292H14.6188ZM24.4898 62.1468C26.076 62.1468 27.1982 61.3655 27.5201 60.1818L26.1802 59.9403C25.9245 60.6269 25.3089 60.9773 24.504 60.9773C23.2919 60.9773 22.4775 60.1913 22.4396 58.7898H27.6101V58.2879C27.6101 55.66 26.0381 54.6326 24.3904 54.6326C22.3639 54.6326 21.0286 56.1761 21.0286 58.411C21.0286 60.6695 22.3449 62.1468 24.4898 62.1468ZM22.4444 57.7292C22.5012 56.697 23.2493 55.8021 24.3999 55.8021C25.4983 55.8021 26.218 56.6165 26.2228 57.7292H22.4444ZM30.5966 52.303H29.1809V62H30.5966V52.303ZM34.6177 62.161C35.8203 62.161 36.4974 61.5502 36.7673 61.0057H36.8241V62H38.2067V57.1705C38.2067 55.054 36.54 54.6326 35.3847 54.6326C34.0684 54.6326 32.8563 55.1629 32.3828 56.4886L33.7133 56.7917C33.9216 56.2756 34.4519 55.7784 35.4036 55.7784C36.3175 55.7784 36.7862 56.2566 36.7862 57.0805V57.1136C36.7862 57.6297 36.2559 57.6203 34.9491 57.7718C33.5713 57.9328 32.1603 58.2926 32.1603 59.9451C32.1603 61.375 33.2351 62.161 34.6177 62.161ZM34.9254 61.0246C34.1252 61.0246 33.5476 60.6648 33.5476 59.964C33.5476 59.2064 34.2199 58.9366 35.0391 58.8277C35.4983 58.7661 36.5874 58.643 36.791 58.4394V59.3769C36.791 60.2386 36.1044 61.0246 34.9254 61.0246ZM41.508 57.6818C41.508 56.5218 42.2183 55.8589 43.2031 55.8589C44.1643 55.8589 44.7467 56.4886 44.7467 57.5445V62H46.1624V57.3741C46.1624 55.5748 45.1728 54.6326 43.6861 54.6326C42.5923 54.6326 41.8774 55.1392 41.5412 55.911H41.4512V54.7273H40.0923V62H41.508V57.6818ZM51.1245 62.1468C52.8433 62.1468 53.956 61.1146 54.1122 59.6989H52.7344C52.5544 60.4848 51.9437 60.9489 51.134 60.9489C49.9361 60.9489 49.1643 59.9498 49.1643 58.3636C49.1643 56.8059 49.9503 55.8258 51.134 55.8258C52.0336 55.8258 52.5829 56.3939 52.7344 57.0758H54.1122C53.9607 55.608 52.7628 54.6326 51.1103 54.6326C49.0601 54.6326 47.7344 56.1761 47.7344 58.3968C47.7344 60.589 49.0128 62.1468 51.1245 62.1468ZM58.7606 62.1468C60.3468 62.1468 61.469 61.3655 61.7909 60.1818L60.451 59.9403C60.1953 60.6269 59.5798 60.9773 58.7749 60.9773C57.5627 60.9773 56.7483 60.1913 56.7105 58.7898H61.8809V58.2879C61.8809 55.66 60.3089 54.6326 58.6612 54.6326C56.6347 54.6326 55.2995 56.1761 55.2995 58.411C55.2995 60.6695 56.6158 62.1468 58.7606 62.1468ZM56.7152 57.7292C56.772 56.697 57.5201 55.8021 58.6707 55.8021C59.7692 55.8021 60.4889 56.6165 60.4936 57.7292H56.7152ZM68.9927 62H70.4699L72.5106 54.7367H72.5864L74.6271 62H76.0997L78.7938 52.303H77.2502L75.3658 59.8172H75.2758L73.3108 52.303H71.7862L69.8213 59.8125H69.7313L67.8421 52.303H66.3033L68.9927 62ZM82.3615 62.1468C84.4117 62.1468 85.7516 60.6458 85.7516 58.3968C85.7516 56.1335 84.4117 54.6326 82.3615 54.6326C80.3113 54.6326 78.9713 56.1335 78.9713 58.3968C78.9713 60.6458 80.3113 62.1468 82.3615 62.1468ZM82.3662 60.9583C81.0263 60.9583 80.4013 59.7888 80.4013 58.392C80.4013 57 81.0263 55.8163 82.3662 55.8163C83.6967 55.8163 84.3217 57 84.3217 58.392C84.3217 59.7888 83.6967 60.9583 82.3662 60.9583ZM87.3319 62H88.7476V57.5587C88.7476 56.607 89.4815 55.9205 90.4853 55.9205C90.7789 55.9205 91.1103 55.9725 91.224 56.0057V54.6515C91.0819 54.6326 90.8026 54.6184 90.6226 54.6184C89.7704 54.6184 89.0412 55.1013 88.776 55.8826H88.7003V54.7273H87.3319V62ZM92.4491 62H93.8648V59.4195L94.5703 58.714L97.0419 62H98.7796L95.6356 57.8475L98.5807 54.7273H96.8856L93.9879 57.8049H93.8648V52.303H92.4491V62ZM102.706 62.1468C104.292 62.1468 105.414 61.3655 105.736 60.1818L104.396 59.9403C104.141 60.6269 103.525 60.9773 102.72 60.9773C101.508 60.9773 100.694 60.1913 100.656 58.7898H105.826V58.2879C105.826 55.66 104.254 54.6326 102.607 54.6326C100.58 54.6326 99.2448 56.1761 99.2448 58.411C99.2448 60.6695 100.561 62.1468 102.706 62.1468ZM100.661 57.7292C100.717 56.697 101.465 55.8021 102.616 55.8021C103.714 55.8021 104.434 56.6165 104.439 57.7292H100.661ZM107.397 62H108.813V57.5587C108.813 56.607 109.547 55.9205 110.55 55.9205C110.844 55.9205 111.175 55.9725 111.289 56.0057V54.6515C111.147 54.6326 110.868 54.6184 110.688 54.6184C109.835 54.6184 109.106 55.1013 108.841 55.8826H108.765V54.7273H107.397V62Z" fill="#0C1523"/>
<path d="M276.348 31H280.008L290.105 10.8963V7.79126H274.761V10.7943H286.479V10.9643L276.348 31ZM294.363 31H297.865V23.7813L300.608 20.6309L308.11 31H312.325L302.931 18.2397L312.291 7.79126H307.883L298.148 18.8743H297.865V7.79126H294.363V31ZM319.363 27.1017H322.411V20.9595H328.553V17.9111H322.411V11.7803H319.363V17.9111H313.232V20.9595H319.363V27.1017Z" fill="#0C1523"/>
<path opacity="0.7" d="M238.399 62H239.862V58.5909H241.85C244.099 58.5909 245.212 57.232 245.212 55.4422C245.212 53.6572 244.109 52.303 241.855 52.303H238.399V62ZM239.862 57.3504V53.5578H241.699C243.148 53.5578 243.74 54.3438 243.74 55.4422C243.74 56.5407 243.148 57.3504 241.718 57.3504H239.862ZM246.814 62H248.229V57.5587C248.229 56.607 248.963 55.9205 249.967 55.9205C250.261 55.9205 250.592 55.9725 250.706 56.0057V54.6515C250.564 54.6326 250.284 54.6184 250.104 54.6184C249.252 54.6184 248.523 55.1013 248.258 55.8826H248.182V54.7273H246.814V62ZM254.734 62.1468C256.784 62.1468 258.124 60.6458 258.124 58.3968C258.124 56.1335 256.784 54.6326 254.734 54.6326C252.684 54.6326 251.344 56.1335 251.344 58.3968C251.344 60.6458 252.684 62.1468 254.734 62.1468ZM254.739 60.9583C253.399 60.9583 252.774 59.7888 252.774 58.392C252.774 57 253.399 55.8163 254.739 55.8163C256.069 55.8163 256.694 57 256.694 58.392C256.694 59.7888 256.069 60.9583 254.739 60.9583ZM263.166 54.7273H261.598V54.0739C261.598 53.4299 261.863 53.0795 262.555 53.0795C262.848 53.0795 263.057 53.1458 263.189 53.1884L263.521 52.0426C263.322 51.9669 262.91 51.8485 262.337 51.8485C261.186 51.8485 260.178 52.5208 260.178 53.8845V54.7273H259.056V55.8636H260.178V62H261.598V55.8636H263.166V54.7273ZM267.474 62.1468C269.06 62.1468 270.183 61.3655 270.505 60.1818L269.165 59.9403C268.909 60.6269 268.293 60.9773 267.488 60.9773C266.276 60.9773 265.462 60.1913 265.424 58.7898H270.594V58.2879C270.594 55.66 269.023 54.6326 267.375 54.6326C265.348 54.6326 264.013 56.1761 264.013 58.411C264.013 60.6695 265.329 62.1468 267.474 62.1468ZM265.429 57.7292C265.486 56.697 266.234 55.8021 267.384 55.8021C268.483 55.8021 269.202 56.6165 269.207 57.7292H265.429ZM277.615 56.5028C277.322 55.3712 276.436 54.6326 274.864 54.6326C273.221 54.6326 272.056 55.4991 272.056 56.7869C272.056 57.8191 272.681 58.5057 274.045 58.8087L275.276 59.0786C275.977 59.2348 276.304 59.5473 276.304 60.0019C276.304 60.5653 275.702 61.0057 274.774 61.0057C273.927 61.0057 273.382 60.6411 273.212 59.9261L271.843 60.1345C272.08 61.4223 273.15 62.1468 274.784 62.1468C276.54 62.1468 277.757 61.214 277.757 59.8977C277.757 58.8703 277.104 58.2358 275.769 57.928L274.613 57.6629C273.813 57.4735 273.467 57.2036 273.472 56.7112C273.467 56.1525 274.073 55.7547 274.878 55.7547C275.759 55.7547 276.166 56.2424 276.332 56.7301L277.615 56.5028ZM284.764 56.5028C284.47 55.3712 283.585 54.6326 282.013 54.6326C280.37 54.6326 279.205 55.4991 279.205 56.7869C279.205 57.8191 279.83 58.5057 281.193 58.8087L282.425 59.0786C283.125 59.2348 283.452 59.5473 283.452 60.0019C283.452 60.5653 282.851 61.0057 281.923 61.0057C281.075 61.0057 280.531 60.6411 280.36 59.9261L278.992 60.1345C279.228 61.4223 280.299 62.1468 281.932 62.1468C283.689 62.1468 284.906 61.214 284.906 59.8977C284.906 58.8703 284.252 58.2358 282.917 57.928L281.762 57.6629C280.961 57.4735 280.616 57.2036 280.621 56.7112C280.616 56.1525 281.222 55.7547 282.027 55.7547C282.907 55.7547 283.315 56.2424 283.48 56.7301L284.764 56.5028ZM286.462 62H287.878V54.7273H286.462V62ZM287.177 53.6051C287.665 53.6051 288.072 53.2263 288.072 52.7623C288.072 52.2983 287.665 51.9148 287.177 51.9148C286.685 51.9148 286.282 52.2983 286.282 52.7623C286.282 53.2263 286.685 53.6051 287.177 53.6051ZM292.846 62.1468C294.896 62.1468 296.236 60.6458 296.236 58.3968C296.236 56.1335 294.896 54.6326 292.846 54.6326C290.796 54.6326 289.456 56.1335 289.456 58.3968C289.456 60.6458 290.796 62.1468 292.846 62.1468ZM292.851 60.9583C291.511 60.9583 290.886 59.7888 290.886 58.392C290.886 57 291.511 55.8163 292.851 55.8163C294.181 55.8163 294.806 57 294.806 58.392C294.806 59.7888 294.181 60.9583 292.851 60.9583ZM299.232 57.6818C299.232 56.5218 299.942 55.8589 300.927 55.8589C301.888 55.8589 302.471 56.4886 302.471 57.5445V62H303.886V57.3741C303.886 55.5748 302.897 54.6326 301.41 54.6326C300.316 54.6326 299.601 55.1392 299.265 55.911H299.175V54.7273H297.816V62H299.232V57.6818ZM307.902 62.161C309.104 62.161 309.781 61.5502 310.051 61.0057H310.108V62H311.491V57.1705C311.491 55.054 309.824 54.6326 308.669 54.6326C307.352 54.6326 306.14 55.1629 305.667 56.4886L306.997 56.7917C307.206 56.2756 307.736 55.7784 308.688 55.7784C309.601 55.7784 310.07 56.2566 310.07 57.0805V57.1136C310.07 57.6297 309.54 57.6203 308.233 57.7718C306.855 57.9328 305.444 58.2926 305.444 59.9451C305.444 61.375 306.519 62.161 307.902 62.161ZM308.209 61.0246C307.409 61.0246 306.831 60.6648 306.831 59.964C306.831 59.2064 307.504 58.9366 308.323 58.8277C308.782 58.7661 309.871 58.643 310.075 58.4394V59.3769C310.075 60.2386 309.388 61.0246 308.209 61.0246ZM314.792 52.303H313.376V62H314.792V52.303ZM328.393 55.4564C328.061 53.3826 326.437 52.1705 324.387 52.1705C321.878 52.1705 320.026 54.0502 320.026 57.1515C320.026 60.2528 321.868 62.1326 324.387 62.1326C326.518 62.1326 328.076 60.7973 328.393 58.8797L326.916 58.875C326.665 60.1155 325.623 60.7973 324.397 60.7973C322.735 60.7973 321.48 59.5237 321.48 57.1515C321.48 54.7983 322.73 53.5057 324.401 53.5057C325.637 53.5057 326.674 54.2017 326.916 55.4564H328.393ZM331.446 52.303H330.03V62H331.446V52.303ZM333.35 62H334.766V54.7273H333.35V62ZM334.065 53.6051C334.553 53.6051 334.96 53.2263 334.96 52.7623C334.96 52.2983 334.553 51.9148 334.065 51.9148C333.573 51.9148 333.17 52.2983 333.17 52.7623C333.17 53.2263 333.573 53.6051 334.065 53.6051ZM339.805 62.1468C341.391 62.1468 342.513 61.3655 342.835 60.1818L341.495 59.9403C341.24 60.6269 340.624 60.9773 339.819 60.9773C338.607 60.9773 337.793 60.1913 337.755 58.7898H342.925V58.2879C342.925 55.66 341.353 54.6326 339.706 54.6326C337.679 54.6326 336.344 56.1761 336.344 58.411C336.344 60.6695 337.66 62.1468 339.805 62.1468ZM337.76 57.7292C337.816 56.697 338.564 55.8021 339.715 55.8021C340.813 55.8021 341.533 56.6165 341.538 57.7292H337.76ZM345.912 57.6818C345.912 56.5218 346.622 55.8589 347.607 55.8589C348.568 55.8589 349.15 56.4886 349.15 57.5445V62H350.566V57.3741C350.566 55.5748 349.577 54.6326 348.09 54.6326C346.996 54.6326 346.281 55.1392 345.945 55.911H345.855V54.7273H344.496V62H345.912V57.6818ZM355.86 54.7273H354.368V52.9848H352.952V54.7273H351.887V55.8636H352.952V60.1581C352.948 61.4792 353.956 62.1184 355.074 62.0947C355.523 62.09 355.827 62.0047 355.992 61.9432L355.737 60.7737C355.642 60.7926 355.467 60.8352 355.239 60.8352C354.78 60.8352 354.368 60.6837 354.368 59.8646V55.8636H355.86V54.7273ZM362.758 56.5028C362.465 55.3712 361.579 54.6326 360.007 54.6326C358.364 54.6326 357.2 55.4991 357.2 56.7869C357.2 57.8191 357.825 58.5057 359.188 58.8087L360.419 59.0786C361.12 59.2348 361.447 59.5473 361.447 60.0019C361.447 60.5653 360.845 61.0057 359.917 61.0057C359.07 61.0057 358.525 60.6411 358.355 59.9261L356.987 60.1345C357.223 61.4223 358.293 62.1468 359.927 62.1468C361.684 62.1468 362.9 61.214 362.9 59.8977C362.9 58.8703 362.247 58.2358 360.912 57.928L359.756 57.6629C358.956 57.4735 358.611 57.2036 358.615 56.7112C358.611 56.1525 359.217 55.7547 360.022 55.7547C360.902 55.7547 361.309 56.2424 361.475 56.7301L362.758 56.5028Z" fill="#0C1523"/>
<path d="M531.308 31.3173C536.136 31.3173 539.547 28.5749 539.569 24.8125C539.547 21.8888 537.496 19.4296 534.901 18.965V18.829C537.156 18.2851 538.686 16.1659 538.708 13.6614C538.686 10.1144 535.558 7.47395 531.308 7.47395C527.013 7.47395 523.885 10.1144 523.908 13.6614C523.885 16.1546 525.415 18.2851 527.716 18.829V18.965C525.075 19.4296 523.024 21.8888 523.047 24.8125C523.024 28.5749 526.435 31.3173 531.308 31.3173ZM531.308 28.4502C528.407 28.4502 526.571 26.909 526.594 24.5859C526.571 22.1721 528.566 20.4495 531.308 20.4495C534.005 20.4495 536 22.1721 536.022 24.5859C536 26.909 534.175 28.4502 531.308 28.4502ZM531.308 17.6504C528.962 17.6504 527.296 16.1659 527.319 13.9561C527.296 11.7803 528.906 10.341 531.308 10.341C533.665 10.341 535.274 11.7803 535.297 13.9561C535.274 16.1659 533.62 17.6504 531.308 17.6504ZM543.947 31H547.448V23.7813L550.191 20.6309L557.693 31H561.908L552.514 18.2397L561.874 7.79126H557.466L547.732 18.8743H547.448V7.79126H543.947V31ZM568.946 27.1017H571.994V20.9595H578.136V17.9111H571.994V11.7803H568.946V17.9111H562.815V20.9595H568.946V27.1017Z" fill="#0C1523"/>
<path opacity="0.7" d="M491.711 62H497.848V60.7405H493.174V57.7718H497.474V56.517H493.174V53.5625H497.791V52.303H491.711V62ZM501.047 57.6818C501.047 56.5218 501.757 55.8589 502.742 55.8589C503.703 55.8589 504.286 56.4886 504.286 57.5445V62H505.702V57.3741C505.702 55.5748 504.712 54.6326 503.225 54.6326C502.131 54.6326 501.417 55.1392 501.08 55.911H500.99V54.7273H499.631V62H501.047V57.6818ZM510.649 64.8788C512.501 64.8788 513.931 64.0312 513.931 62.161V54.7273H512.543V55.9063H512.439C512.188 55.4564 511.686 54.6326 510.332 54.6326C508.576 54.6326 507.283 56.0199 507.283 58.3352C507.283 60.6553 508.604 61.8911 510.323 61.8911C511.658 61.8911 512.174 61.1383 512.43 60.6742H512.52V62.1042C512.52 63.2453 511.738 63.7377 510.664 63.7377C509.485 63.7377 509.025 63.1458 508.774 62.7292L507.558 63.2311C507.941 64.1212 508.912 64.8788 510.649 64.8788ZM510.635 60.7169C509.371 60.7169 508.713 59.7462 508.713 58.3163C508.713 56.9195 509.357 55.8352 510.635 55.8352C511.871 55.8352 512.534 56.8438 512.534 58.3163C512.534 59.8172 511.857 60.7169 510.635 60.7169ZM515.829 62H517.245V54.7273H515.829V62ZM516.544 53.6051C517.032 53.6051 517.439 53.2263 517.439 52.7623C517.439 52.2983 517.032 51.9148 516.544 51.9148C516.052 51.9148 515.649 52.2983 515.649 52.7623C515.649 53.2263 516.052 53.6051 516.544 53.6051ZM520.565 57.6818C520.565 56.5218 521.276 55.8589 522.26 55.8589C523.222 55.8589 523.804 56.4886 523.804 57.5445V62H525.22V57.3741C525.22 55.5748 524.23 54.6326 522.743 54.6326C521.65 54.6326 520.935 55.1392 520.599 55.911H520.509V54.7273H519.15V62H520.565V57.6818ZM530.253 62.1468C531.839 62.1468 532.961 61.3655 533.283 60.1818L531.943 59.9403C531.688 60.6269 531.072 60.9773 530.267 60.9773C529.055 60.9773 528.241 60.1913 528.203 58.7898H533.373V58.2879C533.373 55.66 531.801 54.6326 530.153 54.6326C528.127 54.6326 526.792 56.1761 526.792 58.411C526.792 60.6695 528.108 62.1468 530.253 62.1468ZM528.207 57.7292C528.264 56.697 529.012 55.8021 530.163 55.8021C531.261 55.8021 531.981 56.6165 531.986 57.7292H528.207ZM538.078 62.1468C539.665 62.1468 540.787 61.3655 541.109 60.1818L539.769 59.9403C539.513 60.6269 538.898 60.9773 538.093 60.9773C536.881 60.9773 536.066 60.1913 536.028 58.7898H541.199V58.2879C541.199 55.66 539.627 54.6326 537.979 54.6326C535.952 54.6326 534.617 56.1761 534.617 58.411C534.617 60.6695 535.934 62.1468 538.078 62.1468ZM536.033 57.7292C536.09 56.697 536.838 55.8021 537.988 55.8021C539.087 55.8021 539.807 56.6165 539.811 57.7292H536.033ZM542.769 62H544.185V57.5587C544.185 56.607 544.919 55.9205 545.923 55.9205C546.216 55.9205 546.548 55.9725 546.662 56.0057V54.6515C546.519 54.6326 546.24 54.6184 546.06 54.6184C545.208 54.6184 544.479 55.1013 544.214 55.8826H544.138V54.7273H542.769V62ZM547.887 62H549.302V54.7273H547.887V62ZM548.602 53.6051C549.089 53.6051 549.497 53.2263 549.497 52.7623C549.497 52.2983 549.089 51.9148 548.602 51.9148C548.109 51.9148 547.707 52.2983 547.707 52.7623C547.707 53.2263 548.109 53.6051 548.602 53.6051ZM552.623 57.6818C552.623 56.5218 553.333 55.8589 554.318 55.8589C555.279 55.8589 555.861 56.4886 555.861 57.5445V62H557.277V57.3741C557.277 55.5748 556.287 54.6326 554.801 54.6326C553.707 54.6326 552.992 55.1392 552.656 55.911H552.566V54.7273H551.207V62H552.623V57.6818ZM562.225 64.8788C564.076 64.8788 565.506 64.0312 565.506 62.161V54.7273H564.119V55.9063H564.015C563.764 55.4564 563.262 54.6326 561.908 54.6326C560.151 54.6326 558.859 56.0199 558.859 58.3352C558.859 60.6553 560.18 61.8911 561.898 61.8911C563.234 61.8911 563.75 61.1383 564.005 60.6742H564.095V62.1042C564.095 63.2453 563.314 63.7377 562.239 63.7377C561.06 63.7377 560.601 63.1458 560.35 62.7292L559.133 63.2311C559.517 64.1212 560.487 64.8788 562.225 64.8788ZM562.211 60.7169C560.947 60.7169 560.288 59.7462 560.288 58.3163C560.288 56.9195 560.932 55.8352 562.211 55.8352C563.447 55.8352 564.109 56.8438 564.109 58.3163C564.109 59.8172 563.432 60.7169 562.211 60.7169ZM571.047 62H577.184V60.7405H572.51V57.7718H576.81V56.517H572.51V53.5625H577.127V52.303H571.047V62ZM580.085 54.7273H578.532L580.767 58.3636L578.503 62H580.056L581.69 59.2822L583.328 62H584.876L582.59 58.3636L584.858 54.7273H583.309L581.69 57.5587L580.085 54.7273ZM586.311 64.7273H587.727V60.8684H587.812C588.068 61.3324 588.589 62.142 589.914 62.142C591.676 62.142 592.954 60.7311 592.954 58.3778C592.954 56.0199 591.657 54.6326 589.9 54.6326C588.551 54.6326 588.063 55.4564 587.812 55.9063H587.694V54.7273H586.311V64.7273ZM587.698 58.3636C587.698 56.8438 588.361 55.8352 589.597 55.8352C590.88 55.8352 591.524 56.9195 591.524 58.3636C591.524 59.822 590.861 60.9347 589.597 60.9347C588.38 60.9347 587.698 59.893 587.698 58.3636ZM596.657 62.161C597.859 62.161 598.537 61.5502 598.806 61.0057H598.863V62H600.246V57.1705C600.246 55.054 598.579 54.6326 597.424 54.6326C596.108 54.6326 594.895 55.1629 594.422 56.4886L595.752 56.7917C595.961 56.2756 596.491 55.7784 597.443 55.7784C598.357 55.7784 598.825 56.2566 598.825 57.0805V57.1136C598.825 57.6297 598.295 57.6203 596.988 57.7718C595.61 57.9328 594.199 58.2926 594.199 59.9451C594.199 61.375 595.274 62.161 596.657 62.161ZM596.965 61.0246C596.164 61.0246 595.587 60.6648 595.587 59.964C595.587 59.2064 596.259 58.9366 597.078 58.8277C597.537 58.7661 598.626 58.643 598.83 58.4394V59.3769C598.83 60.2386 598.144 61.0246 596.965 61.0246ZM602.131 62H603.547V57.5587C603.547 56.607 604.281 55.9205 605.285 55.9205C605.578 55.9205 605.91 55.9725 606.024 56.0057V54.6515C605.881 54.6326 605.602 54.6184 605.422 54.6184C604.57 54.6184 603.841 55.1013 603.576 55.8826H603.5V54.7273H602.131V62ZM611.073 54.7273H609.582V52.9848H608.166V54.7273H607.101V55.8636H608.166V60.1581C608.161 61.4792 609.17 62.1184 610.287 62.0947C610.737 62.09 611.04 62.0047 611.206 61.9432L610.95 60.7737C610.855 60.7926 610.68 60.8352 610.453 60.8352C609.994 60.8352 609.582 60.6837 609.582 59.8646V55.8636H611.073V54.7273Z" fill="#0C1523"/>
<path d="M756.732 31H772.009V27.9969H761.56V27.8269L766.172 22.9993C770.422 18.7044 771.635 16.6532 771.635 14.0581C771.635 10.3297 768.597 7.47395 764.223 7.47395C759.883 7.47395 756.71 10.2844 756.71 14.5227H760.053C760.042 12.0296 761.651 10.3977 764.155 10.3977C766.512 10.3977 768.303 11.8483 768.303 14.1601C768.303 16.2112 767.079 17.6844 764.586 20.3249L756.732 28.4615V31ZM776.621 31H780.123V23.7813L782.865 20.6309L790.367 31H794.583L785.188 18.2397L794.549 7.79126H790.14L780.406 18.8743H780.123V7.79126H776.621V31ZM801.62 27.1017H804.669V20.9595H810.811V17.9111H804.669V11.7803H801.62V17.9111H795.489V20.9595H801.62V27.1017Z" fill="#0C1523"/>
<path opacity="0.7" d="M734.587 53.5625H737.608V62H739.066V53.5625H742.092V52.303H734.587V53.5625ZM745.645 62.1468C747.696 62.1468 749.036 60.6458 749.036 58.3968C749.036 56.1335 747.696 54.6326 745.645 54.6326C743.595 54.6326 742.255 56.1335 742.255 58.3968C742.255 60.6458 743.595 62.1468 745.645 62.1468ZM745.65 60.9583C744.31 60.9583 743.685 59.7888 743.685 58.392C743.685 57 744.31 55.8163 745.65 55.8163C746.981 55.8163 747.606 57 747.606 58.392C747.606 59.7888 746.981 60.9583 745.65 60.9583ZM750.616 64.7273H752.031V60.8684H752.117C752.372 61.3324 752.893 62.142 754.219 62.142C755.98 62.142 757.259 60.7311 757.259 58.3778C757.259 56.0199 755.961 54.6326 754.205 54.6326C752.855 54.6326 752.368 55.4564 752.117 55.9063H751.998V54.7273H750.616V64.7273ZM752.003 58.3636C752.003 56.8438 752.666 55.8352 753.902 55.8352C755.185 55.8352 755.829 56.9195 755.829 58.3636C755.829 59.822 755.166 60.9347 753.902 60.9347C752.685 60.9347 752.003 59.893 752.003 58.3636ZM770.541 55.4564C770.21 53.3826 768.586 52.1705 766.536 52.1705C764.026 52.1705 762.175 54.0502 762.175 57.1515C762.175 60.2528 764.017 62.1326 766.536 62.1326C768.666 62.1326 770.224 60.7973 770.541 58.8797L769.064 58.875C768.813 60.1155 767.771 60.7973 766.545 60.7973C764.883 60.7973 763.628 59.5237 763.628 57.1515C763.628 54.7983 764.878 53.5057 766.55 53.5057C767.786 53.5057 768.822 54.2017 769.064 55.4564H770.541ZM775.242 62.1468C777.292 62.1468 778.632 60.6458 778.632 58.3968C778.632 56.1335 777.292 54.6326 775.242 54.6326C773.192 54.6326 771.852 56.1335 771.852 58.3968C771.852 60.6458 773.192 62.1468 775.242 62.1468ZM775.246 60.9583C773.906 60.9583 773.281 59.7888 773.281 58.392C773.281 57 773.906 55.8163 775.246 55.8163C776.577 55.8163 777.202 57 777.202 58.392C777.202 59.7888 776.577 60.9583 775.246 60.9583ZM780.212 62H781.628V57.5161C781.628 56.536 782.314 55.8542 783.119 55.8542C783.905 55.8542 784.45 56.375 784.45 57.1657V62H785.861V57.3646C785.861 56.4886 786.396 55.8542 787.319 55.8542C788.067 55.8542 788.683 56.2708 788.683 57.2557V62H790.098V57.1231C790.098 55.4612 789.17 54.6326 787.854 54.6326C786.808 54.6326 786.022 55.1345 785.671 55.911H785.596C785.278 55.1155 784.611 54.6326 783.64 54.6326C782.679 54.6326 781.964 55.1108 781.661 55.911H781.571V54.7273H780.212V62ZM791.996 64.7273H793.412V60.8684H793.497C793.753 61.3324 794.273 62.142 795.599 62.142C797.361 62.142 798.639 60.7311 798.639 58.3778C798.639 56.0199 797.342 54.6326 795.585 54.6326C794.236 54.6326 793.748 55.4564 793.497 55.9063H793.379V54.7273H791.996V64.7273ZM793.383 58.3636C793.383 56.8438 794.046 55.8352 795.282 55.8352C796.565 55.8352 797.209 56.9195 797.209 58.3636C797.209 59.822 796.546 60.9347 795.282 60.9347C794.065 60.9347 793.383 59.893 793.383 58.3636ZM802.342 62.161C803.544 62.161 804.221 61.5502 804.491 61.0057H804.548V62H805.931V57.1705C805.931 55.054 804.264 54.6326 803.109 54.6326C801.792 54.6326 800.58 55.1629 800.107 56.4886L801.437 56.7917C801.646 56.2756 802.176 55.7784 803.128 55.7784C804.041 55.7784 804.51 56.2566 804.51 57.0805V57.1136C804.51 57.6297 803.98 57.6203 802.673 57.7718C801.295 57.9328 799.884 58.2926 799.884 59.9451C799.884 61.375 800.959 62.161 802.342 62.161ZM802.649 61.0246C801.849 61.0246 801.272 60.6648 801.272 59.964C801.272 59.2064 801.944 58.9366 802.763 58.8277C803.222 58.7661 804.311 58.643 804.515 58.4394V59.3769C804.515 60.2386 803.828 61.0246 802.649 61.0246ZM809.232 57.6818C809.232 56.5218 809.942 55.8589 810.927 55.8589C811.888 55.8589 812.471 56.4886 812.471 57.5445V62H813.886V57.3741C813.886 55.5748 812.897 54.6326 811.41 54.6326C810.316 54.6326 809.601 55.1392 809.265 55.911H809.175V54.7273H807.816V62H809.232V57.6818ZM815.785 62H817.201V54.7273H815.785V62ZM816.5 53.6051C816.988 53.6051 817.395 53.2263 817.395 52.7623C817.395 52.2983 816.988 51.9148 816.5 51.9148C816.008 51.9148 815.605 52.2983 815.605 52.7623C815.605 53.2263 816.008 53.6051 816.5 53.6051ZM822.24 62.1468C823.826 62.1468 824.948 61.3655 825.27 60.1818L823.93 59.9403C823.674 60.6269 823.059 60.9773 822.254 60.9773C821.042 60.9773 820.228 60.1913 820.19 58.7898H825.36V58.2879C825.36 55.66 823.788 54.6326 822.14 54.6326C820.114 54.6326 818.779 56.1761 818.779 58.411C818.779 60.6695 820.095 62.1468 822.24 62.1468ZM820.194 57.7292C820.251 56.697 820.999 55.8021 822.15 55.8021C823.248 55.8021 823.968 56.6165 823.973 57.7292H820.194ZM832.381 56.5028C832.087 55.3712 831.202 54.6326 829.63 54.6326C827.987 54.6326 826.822 55.4991 826.822 56.7869C826.822 57.8191 827.447 58.5057 828.811 58.8087L830.042 59.0786C830.742 59.2348 831.069 59.5473 831.069 60.0019C831.069 60.5653 830.468 61.0057 829.54 61.0057C828.692 61.0057 828.148 60.6411 827.977 59.9261L826.609 60.1345C826.846 61.4223 827.916 62.1468 829.549 62.1468C831.306 62.1468 832.523 61.214 832.523 59.8977C832.523 58.8703 831.869 58.2358 830.534 57.928L829.379 57.6629C828.579 57.4735 828.233 57.2036 828.238 56.7112C828.233 56.1525 828.839 55.7547 829.644 55.7547C830.525 55.7547 830.932 56.2424 831.098 56.7301L832.381 56.5028Z" fill="#0C1523"/>
</svg>
