<svg width="418" height="418" viewBox="0 0 418 418" fill="none" xmlns="http://www.w3.org/2000/svg">
<g id="instagram ">
<g id="Shadow">
<g id="Rectangle Copy 5" style="mix-blend-mode:multiply" opacity="0.277134" filter="url(#filter0_f_4_319)">
<path d="M179 195.7C179 186.477 186.477 179 195.7 179H222.3C231.523 179 239 186.477 239 195.7V222.3C239 231.523 231.523 239 222.3 239H195.7C186.477 239 179 231.523 179 222.3V195.7Z" fill="black"/>
</g>
<g id="Rectangle Copy 6" style="mix-blend-mode:multiply" opacity="0.304478" filter="url(#filter1_f_4_319)">
<path d="M179 187C179 177.777 186.477 170.3 195.7 170.3H222.3C231.523 170.3 239 177.777 239 187V213.6C239 222.823 231.523 230.3 222.3 230.3H195.7C186.477 230.3 179 222.823 179 213.6V187Z" fill="black"/>
</g>
</g>
<g id="Group 1">
<mask id="mask0_4_319" style="mask-type:luminance" maskUnits="userSpaceOnUse" x="179" y="168" width="60" height="60">
<path id="Rectangle" d="M179 184.7C179 175.477 186.477 168 195.7 168H222.3C231.523 168 239 175.477 239 184.7V211.3C239 220.523 231.523 228 222.3 228H195.7C186.477 228 179 220.523 179 211.3V184.7Z" fill="white"/>
</mask>
<g mask="url(#mask0_4_319)">
<g id="Rectangle Copy 3" filter="url(#filter2_i_4_319)">
<path d="M179 184.7C179 175.477 186.477 168 195.7 168H222.3C231.523 168 239 175.477 239 184.7V211.3C239 220.523 231.523 228 222.3 228H195.7C186.477 228 179 220.523 179 211.3V184.7Z" fill="url(#paint0_linear_4_319)"/>
<path d="M179 184.7C179 175.477 186.477 168 195.7 168H222.3C231.523 168 239 175.477 239 184.7V211.3C239 220.523 231.523 228 222.3 228H195.7C186.477 228 179 220.523 179 211.3V184.7Z" fill="url(#paint1_linear_4_319)" fill-opacity="0.6" style="mix-blend-mode:multiply"/>
</g>
<path id="Rectangle Copy 7" d="M178.992 184.729C178.992 175.506 186.469 168.029 195.692 168.029H222.292C231.515 168.029 238.992 175.506 238.992 184.729V211.329C238.992 220.552 231.515 228.029 222.292 228.029H195.692C186.469 228.029 178.992 220.552 178.992 211.329V184.729Z" fill="url(#paint2_linear_4_319)" fill-opacity="0.9"/>
<g id="Combined Shape" style="mix-blend-mode:screen" filter="url(#filter3_f_4_319)">
<path fill-rule="evenodd" clip-rule="evenodd" d="M195.7 167C186.477 167 179 174.477 179 183.7V186.7C179 177.477 186.477 170 195.7 170H222.3C231.523 170 239 177.477 239 186.7V183.7C239 174.477 231.523 167 222.3 167H195.7Z" fill="white"/>
</g>
<g id="Rectangle Copy 4" filter="url(#filter4_f_4_319)">
<path d="M181.301 185.3C181.301 177.016 188.016 170.3 196.301 170.3H221.701C229.985 170.3 236.701 177.016 236.701 185.3V210.7C236.701 218.984 229.985 225.7 221.701 225.7H196.301C188.016 225.7 181.301 218.984 181.301 210.7V185.3Z" fill="url(#paint3_linear_4_319)"/>
</g>
</g>
</g>
<path id="&#239;&#133;&#173;" d="M209 191.583C205.428 191.583 202.582 194.484 202.582 198C202.582 201.571 205.428 204.417 209 204.417C212.515 204.417 215.417 201.571 215.417 198C215.417 194.484 212.515 191.583 209 191.583ZM209 202.185C206.712 202.185 204.814 200.344 204.814 198C204.814 195.712 206.656 193.871 209 193.871C211.288 193.871 213.129 195.712 213.129 198C213.129 200.344 211.288 202.185 209 202.185ZM217.147 191.359C217.147 190.522 216.477 189.853 215.64 189.853C214.803 189.853 214.134 190.522 214.134 191.359C214.134 192.196 214.803 192.866 215.64 192.866C216.477 192.866 217.147 192.196 217.147 191.359ZM221.388 192.866C221.276 190.857 220.83 189.071 219.379 187.621C217.928 186.17 216.142 185.723 214.134 185.612C212.069 185.5 205.875 185.5 203.81 185.612C201.801 185.723 200.071 186.17 198.564 187.621C197.113 189.071 196.667 190.857 196.555 192.866C196.444 194.931 196.444 201.125 196.555 203.19C196.667 205.199 197.113 206.929 198.564 208.435C200.071 209.886 201.801 210.333 203.81 210.444C205.875 210.556 212.069 210.556 214.134 210.444C216.142 210.333 217.928 209.886 219.379 208.435C220.83 206.929 221.276 205.199 221.388 203.19C221.5 201.125 221.5 194.931 221.388 192.866ZM218.709 205.366C218.319 206.482 217.426 207.319 216.366 207.766C214.692 208.435 210.785 208.268 209 208.268C207.158 208.268 203.252 208.435 201.634 207.766C200.517 207.319 199.68 206.482 199.234 205.366C198.564 203.748 198.732 199.842 198.732 198C198.732 196.214 198.564 192.308 199.234 190.634C199.68 189.574 200.517 188.737 201.634 188.29C203.252 187.621 207.158 187.788 209 187.788C210.785 187.788 214.692 187.621 216.366 188.29C217.426 188.681 218.263 189.574 218.709 190.634C219.379 192.308 219.212 196.214 219.212 198C219.212 199.842 219.379 203.748 218.709 205.366Z" fill="url(#paint4_linear_4_319)"/>
</g>
<defs>
<filter id="filter0_f_4_319" x="0.137054" y="0.136932" width="417.726" height="417.726" filterUnits="userSpaceOnUse" color-interpolation-filters="sRGB">
<feFlood flood-opacity="0" result="BackgroundImageFix"/>
<feBlend mode="normal" in="SourceGraphic" in2="BackgroundImageFix" result="shape"/>
<feGaussianBlur stdDeviation="89.4315" result="effect1_foregroundBlur_4_319"/>
</filter>
<filter id="filter1_f_4_319" x="68.6378" y="59.9376" width="280.724" height="280.724" filterUnits="userSpaceOnUse" color-interpolation-filters="sRGB">
<feFlood flood-opacity="0" result="BackgroundImageFix"/>
<feBlend mode="normal" in="SourceGraphic" in2="BackgroundImageFix" result="shape"/>
<feGaussianBlur stdDeviation="55.1811" result="effect1_foregroundBlur_4_319"/>
</filter>
<filter id="filter2_i_4_319" x="179" y="147" width="60" height="81" filterUnits="userSpaceOnUse" color-interpolation-filters="sRGB">
<feFlood flood-opacity="0" result="BackgroundImageFix"/>
<feBlend mode="normal" in="SourceGraphic" in2="BackgroundImageFix" result="shape"/>
<feColorMatrix in="SourceAlpha" type="matrix" values="0 0 0 0 0 0 0 0 0 0 0 0 0 0 0 0 0 0 127 0" result="hardAlpha"/>
<feOffset dy="-25"/>
<feGaussianBlur stdDeviation="10.5"/>
<feComposite in2="hardAlpha" operator="arithmetic" k2="-1" k3="1"/>
<feColorMatrix type="matrix" values="0 0 0 0 0 0 0 0 0 0 0 0 0 0 0 0 0 0 0.0920291 0"/>
<feBlend mode="normal" in2="shape" result="effect1_innerShadow_4_319"/>
</filter>
<filter id="filter3_f_4_319" x="106.694" y="94.6937" width="204.613" height="164.313" filterUnits="userSpaceOnUse" color-interpolation-filters="sRGB">
<feFlood flood-opacity="0" result="BackgroundImageFix"/>
<feBlend mode="normal" in="SourceGraphic" in2="BackgroundImageFix" result="shape"/>
<feGaussianBlur stdDeviation="36.1531" result="effect1_foregroundBlur_4_319"/>
</filter>
<filter id="filter4_f_4_319" x="138.281" y="127.28" width="141.44" height="141.44" filterUnits="userSpaceOnUse" color-interpolation-filters="sRGB">
<feFlood flood-opacity="0" result="BackgroundImageFix"/>
<feBlend mode="normal" in="SourceGraphic" in2="BackgroundImageFix" result="shape"/>
<feGaussianBlur stdDeviation="21.5099" result="effect1_foregroundBlur_4_319"/>
</filter>
<linearGradient id="paint0_linear_4_319" x1="179" y1="168" x2="179" y2="228.001" gradientUnits="userSpaceOnUse">
<stop stop-color="#F1F1F1"/>
<stop offset="1" stop-color="#C3C3C3"/>
</linearGradient>
<linearGradient id="paint1_linear_4_319" x1="182.691" y1="175.383" x2="182.691" y2="228" gradientUnits="userSpaceOnUse">
<stop stop-opacity="0.01"/>
<stop offset="1" stop-opacity="0.5"/>
</linearGradient>
<linearGradient id="paint2_linear_4_319" x1="187.6" y1="168.029" x2="187.6" y2="210.814" gradientUnits="userSpaceOnUse">
<stop stop-color="white" stop-opacity="0.463778"/>
<stop offset="1" stop-color="white" stop-opacity="0.01"/>
</linearGradient>
<linearGradient id="paint3_linear_4_319" x1="181.3" y1="170.3" x2="181.3" y2="225.7" gradientUnits="userSpaceOnUse">
<stop stop-color="#E3E3E3"/>
<stop offset="1" stop-color="#DEDEDE"/>
</linearGradient>
<linearGradient id="paint4_linear_4_319" x1="212.751" y1="229.169" x2="248.245" y2="194.189" gradientUnits="userSpaceOnUse">
<stop stop-color="white"/>
<stop offset="0.147864" stop-color="#F6640E"/>
<stop offset="0.443974" stop-color="#BA03A7"/>
<stop offset="0.733337" stop-color="#6A01B9"/>
<stop offset="1" stop-color="#6B01B9"/>
</linearGradient>
</defs>
</svg>
